# xmcd CD database generated by RipIT
#
# Track frame offsets:
# 150
# 13179
# 33311
# 49283
# 63075
# 78236
# 93125
# 110293
# 122623
# 136879
# 151877
# 171446
# 187948
# 202940
#
# Disc length: 2930 seconds
#
# Revision: 0
# Processed by: cddbd v1.5.2PL0 Copyright (c) Steve Scherf et al.
# Submitted via: RipIT 3.4.2.4 www.suwald.com/ripit/ripit.html at Sat Feb 14 21:20:14 CST 2009
#
DISCID=a80b700e
DTITLE=Aaron Tippin - in overdrive
DYEAR=2009
DGENRE=Country
TTITLE0=East Bound And Down
TTITLE1=Truck Drivin' Man
TTITLE2=Drivin' My Live Away
TTITLE3=Six Days On The Road
TTITLE4=Chicken Truck
TTITLE5=The Ballad Of Danger Dave And Double Trouble
TTITLE6=Prisoner Of The Highway
TTITLE7=Girl On The Billboard
TTITLE8=Long White Line
TTITLE9=Movin' On
TTITLE10=White Knight
TTITLE11=Roll On
TTITLE12=Drivin' Fool
TTITLE13=Drill Here, Drill Now
EXTD=
EXTT0=
EXTT1=
EXTT2=
EXTT3=
EXTT4=
EXTT5=
EXTT6=
EXTT7=
EXTT8=
EXTT9=
EXTT10=
EXTT11=
EXTT12=
EXTT13=
PLAYORDER=
